# xmcd
#
# Track frame offsets:
#	150
#	14571
#	25109
#	36665
#	47552
#	60558
#	73475
#	86373
#	97445
#	107644
#	118611
#	129472
#	141054
#	151702
#	164739
#	173855
#	185129
#	197301
#	210190
#	220984
#
# Disc length: 3115 seconds
#
# Revision: 0
# Processed by: cddbd v1.4PL0 Copyright (c) Steve Scherf et al.
# Submitted via: dBpowerAMP V4.0
#
DISCID=240c2914
DTITLE=Jimmy Reed - His greatest recordings
DYEAR=2003
DGENRE=Blues
TTITLE0=Track01 You Don't Have To Go
TTITLE1=Track02 I Ain't Got You
TTITLE2=Track03 She Don't Want Me No More
TTITLE3=Track04 Ain't That Lovin' You Baby
TTITLE4=Track05 You Got Me Dizzy
TTITLE5=Track06 The Sun Is Shining
TTITLE6=Track07 Honest I Do
TTITLE7=Track08 Down In Virginia
TTITLE8=Track09 I Wanna Be Loved
TTITLE9=Track10 Take Out Some Insurance
TTITLE10=Track11 Baby What You Want Me To Do
TTITLE11=Track12 Hush Hush
TTITLE12=Track13 Found Love
TTITLE13=Track14 Big Boss Man
TTITLE14=Track15 I'm A Love You (I'm In Love With You)
TTITLE15=Track16 Aw Shucks Hush Your Mouth
TTITLE16=Track17 Bright Lights Big City
TTITLE17=Track18 Close Together
TTITLE18=Track19 Shame Shame Shame
TTITLE19=Track20 Good Lover
EXTD=Jimmy Reed was the most successful Blues artist of the fifties. Jimmy died in his sleep at the age of 50 in 1976.\n\nHunter George
EXTT0=
EXTT1=
EXTT2=
EXTT3=
EXTT4=
EXTT5=
EXTT6=
EXTT7=
EXTT8=
EXTT9=
EXTT10=
EXTT11=
EXTT12=
EXTT13=
EXTT14=
EXTT15=
EXTT16=
EXTT17=
EXTT18=
EXTT19=
PLAYORDER=
